<svg width="760" height="300" viewBox="0 0 760 300" fill="none" xmlns="http://www.w3.org/2000/svg">
<path d="M0 240.567V198.723L123.522 3.97163H158.489V63.5461H137.167L54.0141 195.035V197.305H226.433V240.567H0ZM138.873 294.468V227.801L139.442 209.078V3.97163H189.192V294.468H138.873Z" fill="white"/>
<path d="M379.449 300C356.043 300 335.954 294.09 319.181 282.27C302.503 270.355 289.663 253.191 280.66 230.78C271.753 208.274 267.299 181.182 267.299 149.504C267.394 117.825 271.895 90.8747 280.802 68.6525C289.805 46.3357 302.645 29.3144 319.323 17.5887C336.096 5.86289 356.138 0 379.449 0C402.761 0 422.803 5.86289 439.575 17.5887C456.348 29.3144 469.188 46.3357 478.096 68.6525C487.098 90.9693 491.6 117.92 491.6 149.504C491.6 181.277 487.098 208.416 478.096 230.922C469.188 253.333 456.348 270.449 439.575 282.27C422.897 294.09 402.855 300 379.449 300Z" fill="white"/>
<path d="M533.567 240.567V198.723L657.089 3.97163H692.056V63.5461H670.735L587.581 195.035V197.305H760V240.567H533.567ZM672.44 294.468V227.801L673.009 209.078V3.97163H722.759V294.468H672.44Z" fill="white"/>
<path d="M329 206C354.876 165.376 422.55 176.356 433 201.242" stroke="black" stroke-width="3"/>
<path d="M329.5 92C329.5 139.5 366.5 150 366.5 92" stroke="black" stroke-width="3"/>
<path d="M433 92C433 139.907 396 150.497 396 92" stroke="black" stroke-width="3"/>
</svg>
