<svg width="738" height="300" viewBox="0 0 738 300" fill="none" xmlns="http://www.w3.org/2000/svg">
<path d="M100.316 298.44C81.397 298.44 64.4649 294.894 49.5193 287.801C34.5736 280.615 22.7022 270.78 13.9051 258.298C5.2026 245.816 0.567557 231.537 0 215.461H51.08C52.026 227.376 57.1813 237.116 66.5459 244.681C75.9106 252.151 87.1671 255.887 100.316 255.887C110.626 255.887 119.802 253.522 127.842 248.794C135.882 244.066 142.22 237.494 146.855 229.078C151.49 220.662 153.76 211.064 153.666 200.284C153.76 189.314 151.443 179.574 146.713 171.064C141.984 162.553 135.504 155.887 127.274 151.064C119.045 146.147 109.586 143.688 98.8966 143.688C90.1941 143.593 81.6335 145.201 73.2147 148.511C64.796 151.82 58.1272 156.17 53.2084 161.56L5.67556 153.759L20.8577 3.97163H189.422V47.9433H64.4176L56.0461 124.965H57.7488C63.1406 118.629 70.7553 113.381 80.5929 109.22C90.4306 104.965 101.214 102.837 112.944 102.837C130.538 102.837 146.24 106.998 160.051 115.319C173.861 123.546 184.739 134.894 192.685 149.362C200.631 163.83 204.604 180.378 204.604 199.007C204.604 218.203 200.158 235.319 191.266 250.355C182.469 265.296 170.219 277.069 154.517 285.674C138.909 294.184 120.842 298.44 100.316 298.44Z" fill="white"/>
<path d="M359.547 300C336.182 300 316.129 294.09 299.386 282.27C282.737 270.355 269.92 253.191 260.934 230.78C252.042 208.274 247.596 181.182 247.596 149.504C247.691 117.825 252.184 90.8747 261.076 68.6525C270.062 46.3357 282.879 29.3144 299.528 17.5887C316.271 5.86289 336.277 0 359.547 0C382.816 0 402.823 5.86289 419.566 17.5887C436.309 29.3144 449.126 46.3357 458.018 68.6525C467.004 90.9693 471.497 117.92 471.497 149.504C471.497 181.277 467.004 208.416 458.018 230.922C449.126 253.333 436.309 270.449 419.566 282.27C402.917 294.09 382.911 300 359.547 300Z" fill="white"/>
<path d="M626.05 300C602.685 300 582.632 294.09 565.889 282.27C549.24 270.355 536.423 253.191 527.437 230.78C518.545 208.274 514.099 181.182 514.099 149.504C514.194 117.825 518.687 90.8747 527.579 68.6525C536.565 46.3357 549.382 29.3144 566.031 17.5887C582.774 5.86289 602.78 0 626.05 0C649.319 0 669.326 5.86289 686.069 17.5887C702.812 29.3144 715.629 46.3357 724.521 68.6525C733.507 90.9693 738 117.92 738 149.504C738 181.277 733.507 208.416 724.521 230.922C715.629 253.333 702.812 270.449 686.069 282.27C669.42 294.09 649.414 300 626.05 300Z" fill="white"/>
<path d="M578 207C603.876 166.376 671.55 177.356 682 202.242" stroke="black" stroke-width="3"/>
<path d="M578.5 93C578.5 140.5 615.5 151 615.5 93" stroke="black" stroke-width="3"/>
<path d="M682 93C682 140.907 645 151.497 645 93" stroke="black" stroke-width="3"/>
<path d="M305 199.5H411" stroke="black" stroke-width="3"/>
<path d="M331.685 92.4184L299.458 121.306M331.142 122.12L299.01 91.4676" stroke="black" stroke-width="3"/>
<path d="M405.5 90.0104L377.597 123.093M409.087 119.5L373.01 93.6061" stroke="black" stroke-width="3"/>
</svg>
