<svg width="178" height="19" viewBox="0 0 178 19" fill="none" xmlns="http://www.w3.org/2000/svg">
<path d="M4.5161 18.0673H0.571022L6.58216 0.546429H11.3265L17.3291 18.0673H13.384L9.02233 4.55023H8.88629L4.5161 18.0673Z" fill="#272C32"/>
<path d="M26.6077 18.0673V0.546429H33.4775C34.7926 0.546429 35.9149 0.783121 36.8445 1.2565C37.7797 1.72419 38.4911 2.38863 38.9785 3.24985C39.4717 4.10536 39.7183 5.11202 39.7183 6.26981C39.7183 7.43331 39.4689 8.43426 38.97 9.27266C38.4712 10.1054 37.7486 10.7441 36.802 11.189C35.861 11.6339 34.7217 11.8563 33.384 11.8563H32.7889V8.87913C33.4917 8.87913 34.0755 8.78217 34.5403 8.58825C35.0051 8.39434 35.3509 8.10346 35.5776 7.71563C35.81 7.3278 35.9262 6.84586 35.9262 6.26981C35.9262 5.68806 35.81 5.19757 35.5776 4.79833C35.3509 4.39909 35.0023 4.09681 34.5318 3.89149C34.067 3.68046 33.4804 3.57495 32.7719 3.57495H30.2892V18.0673H26.6077ZM36.414 11.0407L40.3389 18.0673H36.2748L32.7889 11.8563L36.414 11.0407Z" fill="#272C32"/>
<path d="M49.5027 18.0673V0.546429H53.1842V8.27171H53.4138L59.68 0.546429H64.0927L57.6309 8.39149L64.1692 18.0673H59.765L54.9952 10.8639L53.1842 13.0883V18.0673H49.5027Z" fill="#272C32"/>
<path d="M76.194 18.0673H72.249L78.2601 0.546429H83.0044L89.007 18.0673H85.062L80.7003 4.55023H80.5642L76.194 18.0673Z" fill="#272C32"/>
<path d="M112.85 0.546429V18.0673H109.67L102.095 7.03977H101.967V18.0673H98.2856V0.546429H101.517L109.033 11.5654H109.186V0.546429H112.85Z" fill="#272C32"/>
<path d="M139.076 9.30689C139.076 11.2175 138.716 12.843 137.996 14.1833C137.282 15.5236 136.307 16.5474 135.071 17.2546C133.841 17.9561 132.458 18.3069 130.922 18.3069C129.375 18.3069 127.986 17.9533 126.756 17.246C125.526 16.5388 124.554 15.5151 123.84 14.1748C123.126 12.8345 122.768 11.2118 122.768 9.30689C122.768 7.39624 123.126 5.77076 123.84 4.43046C124.554 3.09015 125.526 2.06924 126.756 1.36772C127.986 0.660497 129.375 0.306885 130.922 0.306885C132.458 0.306885 133.841 0.660497 135.071 1.36772C136.307 2.06924 137.282 3.09015 137.996 4.43046C138.716 5.77076 139.076 7.39624 139.076 9.30689ZM135.343 9.30689C135.343 8.06924 135.159 7.02552 134.791 6.17571C134.428 5.3259 133.915 4.68141 133.252 4.24225C132.589 3.80308 131.812 3.5835 130.922 3.5835C130.032 3.5835 129.256 3.80308 128.593 4.24225C127.929 4.68141 127.414 5.3259 127.045 6.17571C126.682 7.02552 126.501 8.06924 126.501 9.30689C126.501 10.5445 126.682 11.5883 127.045 12.4381C127.414 13.2879 127.929 13.9324 128.593 14.3715C129.256 14.8107 130.032 15.0303 130.922 15.0303C131.812 15.0303 132.589 14.8107 133.252 14.3715C133.915 13.9324 134.428 13.2879 134.791 12.4381C135.159 11.5883 135.343 10.5445 135.343 9.30689Z" fill="#272C32"/>
<path d="M152.667 0.546429V18.0673H148.986V0.546429H152.667Z" fill="#272C32"/>
<path d="M169.052 18.0673H162.879V0.546429H169.103C170.854 0.546429 172.362 0.897189 173.626 1.59871C174.89 2.29453 175.862 3.29548 176.542 4.60156C177.228 5.90765 177.571 7.47038 177.571 9.28978C177.571 11.1149 177.228 12.6833 176.542 13.9951C175.862 15.3069 174.884 16.3135 173.609 17.0151C172.339 17.7166 170.82 18.0673 169.052 18.0673ZM166.561 14.8934H168.899C169.987 14.8934 170.902 14.6995 171.645 14.3116C172.393 13.9181 172.954 13.3107 173.328 12.4894C173.708 11.6624 173.898 10.5959 173.898 9.28978C173.898 7.9951 173.708 6.93711 173.328 6.11582C172.954 5.29453 172.396 4.68996 171.653 4.30213C170.911 3.9143 169.995 3.72038 168.907 3.72038H166.561V14.8934Z" fill="#272C32"/>
</svg>
