<svg width="344" height="600" viewBox="0 0 344 600" fill="none" xmlns="http://www.w3.org/2000/svg">
<path d="M0 0H344V600H0V0Z" fill="#343434"/>
<mask id="mask0_9_2" style="mask-type:alpha" maskUnits="userSpaceOnUse" x="0" y="0" width="344" height="600">
<path d="M0 0H344V600H0V0Z" fill="#0B82FF"/>
</mask>
<g mask="url(#mask0_9_2)">
<circle cx="36" cy="93" r="155" fill="white"/>
<path d="M32.9787 132.654L20.6448 138.142L14.7155 64.3616L28.9805 58.0136L79.8537 111.794L67.5198 117.283L27.9185 74.1581L27.4201 74.3799L32.9787 132.654ZM22.2539 107.463L55.8918 92.494L60.0221 101.776L26.3842 116.745L22.2539 107.463Z" fill="#272C32"/>
<circle cx="114.5" cy="445.5" r="90.5" fill="#FF5730"/>
<path d="M115.364 475.444L85.2089 439.987L90.9221 435.128L128.169 445.071L128.463 444.82L107.923 420.669L114.346 415.207L144.501 450.663L138.753 455.551L101.509 445.577L101.197 445.842L121.752 470.01L115.364 475.444Z" fill="white"/>
<circle cx="327.5" cy="72.5" r="136.5" fill="#FF5730"/>
<path d="M326.529 32.8052L365.432 85.4442L345.692 100.033C341.648 103.021 337.736 104.826 333.956 105.447C330.159 106.081 326.621 105.649 323.342 104.152C320.058 102.684 317.175 100.271 314.693 96.9124C312.198 93.5368 310.752 90.0748 310.355 86.5265C309.954 83.0079 310.641 79.5461 312.416 76.1409C314.205 72.7528 317.121 69.5645 321.164 66.5758L335.224 56.1852L341.074 64.1016L328.3 73.5424C325.936 75.29 324.24 77.0466 323.213 78.8121C322.199 80.5948 321.801 82.3861 322.018 84.186C322.231 86.0156 323.028 87.8643 324.408 89.7321C325.789 91.5998 327.335 92.9211 329.047 93.6959C330.771 94.4879 332.641 94.6694 334.655 94.2404C336.682 93.8285 338.887 92.7425 341.269 90.9822L350.008 84.5237L316.993 39.8526L326.529 32.8052ZM316.963 76.7546L286.304 62.5333L296.945 54.6692L327.373 69.0614L316.963 76.7546Z" fill="white"/>
<circle cx="210.5" cy="279.5" r="100.5" fill="white"/>
<circle cx="-50.5" cy="650.5" r="171.5" fill="white"/>
<path d="M193.607 299.262L184.873 297.087L212.021 255.88L222.122 258.396L226.798 307.527L218.064 305.352L214.941 266.445L214.588 266.357L193.607 299.262ZM198.303 281.624L222.121 287.555L220.485 294.127L196.667 288.196L198.303 281.624Z" fill="#272C32"/>
<circle cx="321" cy="467" r="116" fill="#FF5730"/>
<path d="M353.601 467.091C353.601 474.614 352.192 481.057 349.374 486.42C346.578 491.761 342.76 495.852 337.919 498.693C333.101 501.534 327.635 502.955 321.521 502.955C315.408 502.955 309.93 501.534 305.089 498.693C300.271 495.83 296.453 491.727 293.635 486.386C290.839 481.023 289.442 474.591 289.442 467.091C289.442 459.568 290.839 453.136 293.635 447.795C296.453 442.432 300.271 438.33 305.089 435.489C309.93 432.648 315.408 431.227 321.521 431.227C327.635 431.227 333.101 432.648 337.919 435.489C342.76 438.33 346.578 442.432 349.374 447.795C352.192 453.136 353.601 459.568 353.601 467.091ZM340.885 467.091C340.885 461.795 340.055 457.33 338.396 453.693C336.76 450.034 334.487 447.273 331.578 445.409C328.669 443.523 325.317 442.58 321.521 442.58C317.726 442.58 314.374 443.523 311.464 445.409C308.555 447.273 306.271 450.034 304.612 453.693C302.976 457.33 302.158 461.795 302.158 467.091C302.158 472.386 302.976 476.864 304.612 480.523C306.271 484.159 308.555 486.92 311.464 488.807C314.374 490.67 317.726 491.602 321.521 491.602C325.317 491.602 328.669 490.67 331.578 488.807C334.487 486.92 336.76 484.159 338.396 480.523C340.055 476.864 340.885 472.386 340.885 467.091Z" fill="white"/>
<circle cx="53" cy="308" r="59" fill="black"/>
<circle cx="185" cy="576" r="58" fill="black"/>
<path d="M189.241 553.455V600H180.81V553.455H189.241Z" fill="white"/>
<path d="M63.0886 321.008L38.0726 313.282L39.4722 308.75L50.9663 312.3L51.0606 311.995L42.5806 298.685L44.2894 293.152L52.5272 306.293L69.3318 300.792L67.6494 306.24L54.6198 310.391L57.0371 314.175L64.4882 316.476L63.0886 321.008Z" fill="white"/>
</g>
</svg>
